<?xml version="1.0" standalone="no"?>
<!DOCTYPE svg PUBLIC "-//W3C//DTD SVG 20010904//EN"
 "http://www.w3.org/TR/2001/REC-SVG-20010904/DTD/svg10.dtd">
<svg version="1.0" xmlns="http://www.w3.org/2000/svg"
 width="16.000000pt" height="16.000000pt" viewBox="0 0 16.000000 16.000000"
 preserveAspectRatio="xMidYMid meet">
<metadata>
Created by potrace 1.11, written by Peter Selinger 2001-2013
</metadata>
<g transform="translate(0.000000,16.000000) scale(0.006154,-0.006154)"
fill="#000000" stroke="none">
<path d="M0 2386 l0 -213 22 3 c62 11 1821 205 1824 202 1 -2 -200 -296 -447
-653 -248 -358 -454 -656 -459 -664 -6 -12 -102 -22 -446 -47 -242 -18 -452
-33 -467 -33 l-28 -1 3 -132 3 -133 276 -210 276 -210 -278 -3 -279 -2 0 -145
0 -145 1300 0 1300 0 0 145 0 145 -135 0 -135 0 0 349 0 349 -306 466 -306
466 78 115 c43 63 81 112 84 108 4 -5 164 -255 355 -558 191 -302 352 -554
357 -560 4 -5 8 42 8 105 l0 115 -90 140 c-49 77 -90 145 -90 151 0 7 34 14
90 18 l90 8 0 519 0 519 -1300 0 -1300 0 0 -214z m1583 -1262 l137 -27 0 -187
0 -188 -37 5 c-21 2 -90 10 -153 16 l-115 12 -3 203 c-2 191 -1 203 15 198 10
-3 80 -17 156 -32z m337 -67 l105 -22 3 -172 c2 -135 0 -173 -10 -172 -7 0
-62 6 -123 12 l-110 12 -3 183 c-2 169 -1 182 15 182 10 -1 65 -11 123 -23z
m-327 -379 l127 -12 0 -188 0 -188 -155 0 -155 0 0 200 0 200 28 0 c15 0 84
-5 155 -12z m365 -34 l72 -7 0 -173 0 -174 -125 0 -125 0 0 186 0 186 53 -6
c28 -3 85 -8 125 -12z"/>
</g>
</svg>
